<?xml version="1.0" encoding="utf-8"?>
<!-- Generator: Adobe Illustrator 23.1.0, SVG Export Plug-In . SVG Version: 6.00 Build 0)  -->
<svg version="1.1" id="OBJECTS_copia" xmlns="http://www.w3.org/2000/svg" xmlns:xlink="http://www.w3.org/1999/xlink" x="0px"
	 y="0px" viewBox="0 0 443.1 327.5" style="enable-background:new 0 0 443.1 327.5;" xml:space="preserve">
<style type="text/css">
	.st0{fill:#FF7555;}
	.st1{fill:none;stroke:#313131;stroke-width:2.1628;stroke-linecap:round;stroke-linejoin:round;stroke-miterlimit:10;}
	.st2{fill:none;stroke:#313131;stroke-width:3.2675;stroke-miterlimit:10;}
	.st3{fill:#313131;}
	.st4{fill:none;stroke:#313131;stroke-width:2.4187;stroke-linecap:round;stroke-linejoin:round;stroke-miterlimit:10;}
	.st5{fill:none;stroke:#313131;stroke-width:2.2614;stroke-linecap:round;stroke-linejoin:round;stroke-miterlimit:10;}
	
		.st6{fill:none;stroke:#313131;stroke-width:2.1628;stroke-linecap:round;stroke-linejoin:round;stroke-miterlimit:10;stroke-dasharray:3.2675,7.6242;}
	
		.st7{fill:none;stroke:#000000;stroke-width:2.0166;stroke-linecap:round;stroke-linejoin:round;stroke-miterlimit:10;stroke-dasharray:3.0467,7.1089;}
</style>
<g>
	<path class="st0" d="M164.1,227.5H151v23h-31.8v-23H71.7v-23.6l49.5-72.4H151v72h13.1V227.5z M119.2,203.4v-13.8
		c0-2.6,0.1-6.1,0.3-10.5c0.2-4.4,0.3-6.7,0.4-7H119c-1.8,4.2-3.9,8.1-6.3,11.7l-13.2,19.6H119.2z"/>
	<path class="st0" d="M258.5,191.1c0,21.1-3.5,36.5-10.6,46.3c-7.1,9.8-17.9,14.7-32.4,14.7c-14.2,0-24.9-5.1-32.2-15.4
		c-7.2-10.2-10.8-25.5-10.8-45.6c0-21.2,3.5-36.7,10.6-46.6c7.1-9.9,17.9-14.8,32.4-14.8c14.2,0,24.9,5.1,32.1,15.4
		C254.8,155.4,258.5,170.8,258.5,191.1z M204.5,191.1c0,13.5,0.8,22.7,2.5,27.8c1.7,5,4.5,7.6,8.5,7.6c4,0,6.9-2.6,8.5-7.8
		c1.7-5.2,2.5-14.4,2.5-27.5c0-13.2-0.8-22.4-2.5-27.7c-1.7-5.3-4.5-7.9-8.5-7.9c-4,0-6.8,2.6-8.5,7.7
		C205.3,168.2,204.5,177.6,204.5,191.1z"/>
	<path class="st0" d="M359.5,227.5h-13.1v23h-31.8v-23h-47.5v-23.6l49.5-72.4h29.7v72h13.1V227.5z M314.6,203.4v-13.8
		c0-2.6,0.1-6.1,0.3-10.5c0.2-4.4,0.3-6.7,0.4-7h-0.9c-1.8,4.2-3.9,8.1-6.3,11.7L295,203.4H314.6z"/>
</g>
<g>
	<line class="st1" x1="24" y1="157.9" x2="72.1" y2="157.9"/>
	<line class="st1" x1="83.7" y1="157.9" x2="94" y2="157.9"/>
	<line class="st1" x1="15.3" y1="144.3" x2="101.4" y2="144.3"/>
	<line class="st1" x1="8.2" y1="144.3" x2="1.1" y2="144.3"/>
	<line class="st1" x1="15.3" y1="131.4" x2="43.9" y2="131.4"/>
	<line class="st1" x1="51.5" y1="131.4" x2="111.6" y2="131.4"/>
</g>
<g>
	<line class="st1" x1="364.2" y1="265.3" x2="415.8" y2="265.3"/>
	<line class="st1" x1="424.1" y1="265.3" x2="431.6" y2="265.3"/>
	<line class="st1" x1="374.5" y1="251.8" x2="442" y2="251.8"/>
	<line class="st1" x1="369.4" y1="251.8" x2="364.2" y2="251.8"/>
	<line class="st1" x1="364.2" y1="238.9" x2="395.3" y2="238.9"/>
	<line class="st1" x1="400.8" y1="238.9" x2="424.1" y2="238.9"/>
</g>
<g>
	<path class="st2" d="M170.2,227h-13.1v23h-31.8v-23H77.9v-23.6l49.5-72.4h29.7v72h13.1V227z M125.4,203v-13.8
		c0-2.6,0.1-6.1,0.3-10.5c0.2-4.4,0.3-6.7,0.4-7h-0.9c-1.8,4.2-3.9,8.1-6.3,11.7L105.7,203H125.4z"/>
	<path class="st2" d="M264.6,190.7c0,21.1-3.5,36.5-10.6,46.3c-7.1,9.8-17.9,14.7-32.4,14.7c-14.2,0-24.9-5.1-32.2-15.4
		c-7.2-10.2-10.8-25.5-10.8-45.6c0-21.2,3.5-36.7,10.6-46.6c7.1-9.9,17.9-14.8,32.4-14.8c14.2,0,24.9,5.1,32.1,15.4
		C261,155,264.6,170.3,264.6,190.7z M210.6,190.7c0,13.5,0.8,22.7,2.5,27.8c1.7,5,4.5,7.6,8.5,7.6c4,0,6.9-2.6,8.5-7.8
		c1.7-5.2,2.5-14.4,2.5-27.5c0-13.2-0.8-22.4-2.5-27.7c-1.7-5.3-4.5-7.9-8.5-7.9c-4,0-6.8,2.6-8.5,7.7
		C211.5,167.8,210.6,177.1,210.6,190.7z"/>
	<path class="st2" d="M365.7,227h-13.1v23h-31.8v-23h-47.5v-23.6l49.5-72.4h29.7v72h13.1V227z M320.8,203v-13.8
		c0-2.6,0.1-6.1,0.3-10.5c0.2-4.4,0.3-6.7,0.4-7h-0.9c-1.8,4.2-3.9,8.1-6.3,11.7L301.2,203H320.8z"/>
</g>
<g>
	<path class="st3" d="M177.2,302.2h-15.8v-26.5h15.8v5.8h-8.6v4.2h8v5.8h-8v5h8.6V302.2z"/>
	<path class="st3" d="M189.1,292.6v9.7h-7.2v-26.5h8.7c7.2,0,10.8,2.6,10.8,7.8c0,3.1-1.5,5.5-4.5,7.1l7.7,11.6h-8.1l-5.6-9.7H189.1
		z M189.1,287.2h1.3c2.5,0,3.8-1.1,3.8-3.3c0-1.8-1.2-2.7-3.7-2.7h-1.4V287.2z"/>
	<path class="st3" d="M214.2,292.6v9.7h-7.2v-26.5h8.7c7.2,0,10.8,2.6,10.8,7.8c0,3.1-1.5,5.5-4.5,7.1l7.7,11.6h-8.1l-5.6-9.7H214.2
		z M214.2,287.2h1.3c2.5,0,3.8-1.1,3.8-3.3c0-1.8-1.2-2.7-3.7-2.7h-1.4V287.2z"/>
	<path class="st3" d="M257.1,288.9c0,4.5-1.1,7.9-3.3,10.2c-2.2,2.3-5.4,3.5-9.6,3.5c-4.2,0-7.4-1.2-9.6-3.5
		c-2.2-2.3-3.3-5.7-3.3-10.2c0-4.4,1.1-7.8,3.3-10.1s5.4-3.5,9.6-3.5c4.2,0,7.4,1.2,9.6,3.5C256,281,257.1,284.4,257.1,288.9z
		 M238.8,288.9c0,5.1,1.8,7.7,5.4,7.7c1.8,0,3.2-0.6,4-1.9s1.3-3.2,1.3-5.8c0-2.7-0.4-4.6-1.3-5.9s-2.2-1.9-4-1.9
		C240.6,281.1,238.8,283.7,238.8,288.9z"/>
	<path class="st3" d="M269,292.6v9.7h-7.2v-26.5h8.7c7.2,0,10.8,2.6,10.8,7.8c0,3.1-1.5,5.5-4.5,7.1l7.7,11.6h-8.1l-5.6-9.7H269z
		 M269,287.2h1.3c2.5,0,3.8-1.1,3.8-3.3c0-1.8-1.2-2.7-3.7-2.7H269V287.2z"/>
</g>
<g>
	<line class="st1" x1="386.7" y1="154.9" x2="386.7" y2="143.9"/>
	<line class="st1" x1="379" y1="158.1" x2="371.2" y2="150.3"/>
	<line class="st1" x1="375.8" y1="165.8" x2="364.8" y2="165.8"/>
	<line class="st1" x1="379" y1="173.5" x2="371.2" y2="181.3"/>
	<line class="st1" x1="386.7" y1="176.7" x2="386.7" y2="187.7"/>
	<line class="st1" x1="394.4" y1="173.5" x2="402.2" y2="181.3"/>
	<line class="st1" x1="397.6" y1="165.8" x2="408.7" y2="165.8"/>
	<line class="st1" x1="394.4" y1="158.1" x2="402.2" y2="150.3"/>
</g>
<g>
	<line class="st1" x1="40.5" y1="209.9" x2="40.5" y2="201.9"/>
	<line class="st1" x1="34.9" y1="212.2" x2="29.3" y2="206.5"/>
	<line class="st1" x1="32.6" y1="217.8" x2="24.6" y2="217.8"/>
	<line class="st1" x1="34.9" y1="223.3" x2="29.3" y2="229"/>
	<line class="st1" x1="40.5" y1="225.6" x2="40.5" y2="233.6"/>
	<line class="st1" x1="46.1" y1="223.3" x2="51.7" y2="229"/>
	<line class="st1" x1="48.4" y1="217.8" x2="56.4" y2="217.8"/>
	<line class="st1" x1="46.1" y1="212.2" x2="51.7" y2="206.5"/>
</g>
<g>
	<line class="st1" x1="256.4" y1="45.1" x2="256.4" y2="37.1"/>
	<line class="st1" x1="250.8" y1="47.4" x2="245.2" y2="41.7"/>
	<line class="st1" x1="248.5" y1="52.9" x2="240.6" y2="52.9"/>
	<line class="st1" x1="250.8" y1="58.5" x2="245.2" y2="64.2"/>
	<line class="st1" x1="256.4" y1="60.8" x2="256.4" y2="68.8"/>
	<line class="st1" x1="262" y1="58.5" x2="267.6" y2="64.2"/>
	<line class="st1" x1="264.3" y1="52.9" x2="272.3" y2="52.9"/>
	<line class="st1" x1="262" y1="47.4" x2="267.6" y2="41.7"/>
</g>
<rect x="80.1" y="266.7" class="st4" width="273.8" height="43.1"/>
<polyline class="st1" points="101.4,112 101.4,77.5 280.9,77.5 280.9,154.2 "/>
<polyline class="st1" points="217.7,52.9 217.7,96.2 336.7,96.2 336.7,115.8 "/>
<path class="st1" d="M105.7,116.3c0,2.4-1.9,4.3-4.3,4.3c-2.4,0-4.3-1.9-4.3-4.3c0-2.4,1.9-4.3,4.3-4.3
	C103.8,112,105.7,113.9,105.7,116.3z"/>
<circle class="st1" cx="217.7" cy="48.7" r="4.3"/>
<path class="st1" d="M341,120.6c0,2.4-1.9,4.3-4.3,4.3c-2.4,0-4.3-1.9-4.3-4.3c0-2.4,1.9-4.3,4.3-4.3
	C339.1,116.3,341,118.2,341,120.6z"/>
<path class="st1" d="M285.2,159.2c0,2.4-1.9,4.3-4.3,4.3s-4.3-1.9-4.3-4.3c0-2.4,1.9-4.3,4.3-4.3S285.2,156.8,285.2,159.2z"/>
<g>
	<line class="st1" x1="73.5" y1="245" x2="63.4" y2="255.1"/>
	<line class="st1" x1="63.4" y1="245" x2="73.5" y2="255.1"/>
</g>
<g>
	<line class="st1" x1="78.6" y1="97.8" x2="68.5" y2="108"/>
	<line class="st1" x1="68.5" y1="97.8" x2="78.6" y2="108"/>
</g>
<g>
	<line class="st1" x1="407.3" y1="212.7" x2="397.2" y2="222.8"/>
	<line class="st1" x1="397.2" y1="212.7" x2="407.3" y2="222.8"/>
</g>
<path class="st5" d="M119.7,40c-3.2,0-6.2,1.2-8.5,3.1c-2.3-7.1-9-12.2-16.8-12.2c-8.8,0-16.1,6.4-17.5,14.8
	C76,45.4,75,45.3,74,45.3c-5.8,0-10.6,4.7-10.6,10.6c0,5.4,4,9.8,9.2,10.5v0.1h47.1c7.3,0,13.2-5.9,13.2-13.2
	C132.9,45.9,127,40,119.7,40z"/>
<path class="st1" d="M364.8,107.2c2.3,0,4.5,0.8,6.2,2.2c1.7-5.1,6.5-8.8,12.2-8.8c6.4,0,11.7,4.6,12.7,10.7
	c0.7-0.2,1.4-0.3,2.1-0.3c4.2,0,7.7,3.4,7.7,7.7c0,3.9-2.9,7.1-6.7,7.6v0.1h-34.2c-5.3,0-9.6-4.3-9.6-9.6
	C355.2,111.5,359.5,107.2,364.8,107.2z"/>
<path class="st1" d="M412,288.9c-2,0-3.8,0.7-5.2,1.9c-1.4-4.3-5.5-7.4-10.3-7.4c-5.4,0-9.8,3.9-10.7,9c-0.6-0.2-1.2-0.3-1.8-0.3
	c-3.6,0-6.4,2.9-6.4,6.4c0,3.3,2.4,6,5.6,6.4v0.1H412c4.4,0,8.1-3.6,8.1-8.1C420.1,292.5,416.5,288.9,412,288.9z"/>
<path class="st1" d="M22.5,271.9c2.3,0,4.5,0.8,6.2,2.2c1.7-5.1,6.5-8.8,12.2-8.8c6.4,0,11.7,4.6,12.7,10.7c0.7-0.2,1.4-0.3,2.1-0.3
	c4.2,0,7.7,3.4,7.7,7.7c0,3.9-2.9,7.1-6.7,7.6v0.1H22.5c-5.3,0-9.6-4.3-9.6-9.6C12.9,276.2,17.2,271.9,22.5,271.9z"/>
<path class="st6" d="M132.9,33.6c0,0,60.4-49.3,142.6-26.6C361.8,30.9,379,92.4,379,92.4"/>
<path class="st7" d="M41.7,176.9c-23.4,3.6-35.2,53.4-8.9,73.1"/>
<path class="st6" d="M336.7,320.3c0,0,40.1,17.5,57.7-6.9"/>
<line class="st1" x1="145.7" y1="120.6" x2="145.7" y2="95.2"/>
<line class="st1" x1="139.6" y1="120.6" x2="139.6" y2="108"/>
<line class="st1" x1="238.9" y1="126.4" x2="238.9" y2="107.9"/>
<line class="st1" x1="232" y1="124.9" x2="232" y2="117.2"/>
<line class="st1" x1="225.8" y1="124.9" x2="225.8" y2="112"/>
<line class="st1" x1="151.6" y1="120.6" x2="151.6" y2="107.9"/>
<line class="st1" x1="319.6" y1="124.1" x2="319.6" y2="118.4"/>
<line class="st1" x1="313.5" y1="124.1" x2="313.5" y2="110.3"/>
<line class="st1" x1="325.5" y1="124.1" x2="325.5" y2="114.2"/>
</svg>
