<svg xmlns="http://www.w3.org/2000/svg" xmlns:xlink="http://www.w3.org/1999/xlink" width="360" height="360" viewBox="0 0 692.26 697.89"><defs><style>.cls-1,.cls-13,.cls-2{fill:none;}.cls-2{stroke:#555;stroke-width:12px;}.cls-13,.cls-2{stroke-miterlimit:10;}.cls-3{fill:#e8c9e6;}.cls-4{fill:#dfa97d;}.cls-5{fill:#ecb485;}.cls-6{fill:#7f7f7f;}.cls-7{fill:#524739;}.cls-8{fill:#615543;}.cls-9{fill:#454444;}.cls-10{fill:#ececee;}.cls-11{fill:#d29b6e;}.cls-12{fill:#dbb5dc;}.cls-13{stroke:#c798c8;}.cls-14{fill:#f5e4d3;opacity:0.4;}.cls-15{fill:#5b5b5f;}.cls-16,.cls-31{fill:#fff;}.cls-16{opacity:0.2;}.cls-17{fill:#a19f9a;}.cls-18{fill:#aaa8a6;}.cls-19{fill:#dbdad9;}.cls-20{fill:#f9bf98;}.cls-21{fill:#d8d8c4;}.cls-22{clip-path:url(#clip-path);}.cls-23{fill:#3b301e;}.cls-24{fill:#d6d7db;}.cls-25{fill:#f9392e;}.cls-26{clip-path:url(#clip-path-2);}.cls-27{fill:#828187;}.cls-28{fill:#ba6724;}.cls-29{fill:#97979b;}.cls-30{fill:#bf5293;}.cls-31{font-size:17.74px;font-family:Bebas, Bebas;}.cls-32{clip-path:url(#clip-path-3);}.cls-33{fill:#485e32;}.cls-34{fill:#d7a175;}.cls-35{fill:#b7bfaa;}.cls-36{clip-path:url(#clip-path-4);}.cls-37{fill:#668c42;}.cls-38{fill:#717075;}.cls-39{fill:#fc6542;}.cls-40{clip-path:url(#clip-path-5);}.cls-41{fill:#d6f1e6;}.cls-42{fill:#625134;}.cls-43{fill:#bedbce;}.cls-44{fill:#473e32;}.cls-45{fill:#a7bc2a;}</style><clipPath id="clip-path" transform="translate(-52.79 -102.11)"><circle id="SVGID" class="cls-1" cx="140.08" cy="385.81" r="87.28"/></clipPath><clipPath id="clip-path-2" transform="translate(-52.79 -102.11)"><circle id="SVGID-2" data-name="SVGID" class="cls-1" cx="260.63" cy="182.13" r="78.59" transform="translate(-52.45 237.63) rotate(-45)"/></clipPath><clipPath id="clip-path-3" transform="translate(-52.79 -102.11)"><circle id="SVGID-3" data-name="SVGID" class="cls-1" cx="657.95" cy="386.35" r="87.11" transform="translate(-102.08 319.1) rotate(-25.37)"/></clipPath><clipPath id="clip-path-4" transform="translate(-52.79 -102.11)"><path id="SVGID-4" data-name="SVGID" class="cls-1" d="M624.18,344.78a31.54,31.54,0,1,1,63.08,0"/></clipPath><clipPath id="clip-path-5" transform="translate(-52.79 -102.11)"><circle id="SVGID-5" data-name="SVGID" class="cls-1" cx="541.02" cy="180.76" r="78.65"/></clipPath></defs><title>login</title><g id="Background"><circle class="cls-2" cx="348.21" cy="319.48" r="267"/></g><g id="Objects"><polygon class="cls-3" points="307.88 461.23 274.4 482.09 288.46 697.89 402.14 697.89 396.41 481.04 349.71 457.37 307.88 461.23"/><path class="cls-4" d="M427.12,539.51v23.43s-16.64,16.5-34.75,16.5h.09c-18.1,0-34.75-16.5-34.75-16.5V539.51" transform="translate(-52.79 -102.11)"/><path class="cls-5" d="M468.25,431.57s19.7-10.08,19.24,8.7-8.7,34.37-19.24,25.66" transform="translate(-52.79 -102.11)"/><path class="cls-5" d="M317.62,431.57s-19.7-10.08-19.24,8.7,8.7,34.37,19.24,25.66" transform="translate(-52.79 -102.11)"/><path class="cls-6" d="M311.75,470.55a8.8,8.8,0,0,1-3.72-.83c-7.73-3.52-11.49-17.3-11.78-29.39-.14-5.83,1.51-9.86,4.9-12,6.58-4.13,17,1.11,17.44,1.34l-1.93,3.79c-2.41-1.22-9.49-3.88-13.25-1.52-2,1.28-3,4.07-2.9,8.28.3,12.53,4.21,23.31,9.29,25.63,2,.91,4.1.4,6.47-1.56l2.71,3.29A11.35,11.35,0,0,1,311.75,470.55Z" transform="translate(-52.79 -102.11)"/><path class="cls-7" d="M475.3,376.62s11,181.75-81.89,178.75c-92.87,3-81.89-178.75-81.89-178.75" transform="translate(-52.79 -102.11)"/><path class="cls-8" d="M352.49,322.4s-78.9,26.56-26.56,85.93c0,0,43.75,32.82,92.19,14.85,0,0,69.52-21.88,78.9-93.75,0,0-32,17.19-46.09,13.28,0,0,21.87-21.87,15.62-41.4,0,0-25.78,17.18-54.68,18.75S357.45,320.44,352.49,322.4Z" transform="translate(-52.79 -102.11)"/><path class="cls-5" d="M392.52,385.68s8.08,3.31,23.13-2.94,37.09-15.05,45.16-4-2.57,109.06-15.42,110.89-20.23-14.32-52.89-14.32-40,16.16-52.89,14.32-23.5-99.87-15.42-110.89,30.11-2.2,45.16,4,23.13,2.94,23.13,2.94" transform="translate(-52.79 -102.11)"/><path class="cls-5" d="M392.5,489.74s11.75,23.28,51.08,7.4c0,0-4.73,31.35-27.9,39.32,0,0-17.45-1.17-17.45-12.89H386.6c0,11.72-17.44,12.89-17.44,12.89-23.18-8-27.9-39.32-27.9-39.32,39.32,15.88,51.07-7.4,51.07-7.4" transform="translate(-52.79 -102.11)"/><path class="cls-8" d="M341.26,416.48a7.36,7.36,0,0,1,.87-1.32,15.47,15.47,0,0,1,2.94-2.86,17,17,0,0,1,2.31-1.49,22.21,22.21,0,0,1,2.82-1.27,19.59,19.59,0,0,1,3.23-.83c.57-.08,1.14-.19,1.71-.25s1.17,0,1.75-.06a18.2,18.2,0,0,1,3.47.29,7.22,7.22,0,0,1,1.67.37c.54.15,1.08.31,1.59.49a16.72,16.72,0,0,1,2.83,1.31,12.93,12.93,0,0,1,2.29,1.56,11.5,11.5,0,0,1,1.71,1.57,17,17,0,0,1,1.13,1.4,11.2,11.2,0,0,1,.87,1.29s-.6-.05-1.55-.22c-.47-.09-1-.18-1.65-.34s-1.36-.19-2.09-.35-1.5-.33-2.34-.39-1.66-.3-2.54-.33-1.74-.22-2.65-.21-1.8-.13-2.72,0-1.82,0-2.72.06-1.8.17-2.69.19-1.75.17-2.57.31-1.64.2-2.39.32c-1.51.2-2.81.42-3.76.57Z" transform="translate(-52.79 -102.11)"/><path class="cls-8" d="M411.5,416.48a7.36,7.36,0,0,1,.87-1.32,15.78,15.78,0,0,1,2.94-2.86,17.16,17.16,0,0,1,2.32-1.49,21.59,21.59,0,0,1,2.82-1.27,19.34,19.34,0,0,1,3.23-.83c.56-.08,1.13-.19,1.71-.25s1.16,0,1.74-.06a18.37,18.37,0,0,1,3.48.29,7.14,7.14,0,0,1,1.66.37c.54.15,1.08.31,1.59.49a16.47,16.47,0,0,1,2.84,1.31,13.21,13.21,0,0,1,2.28,1.56,11.5,11.5,0,0,1,1.71,1.57c.47.51.83,1,1.14,1.4a13.19,13.19,0,0,1,.87,1.29s-.61-.05-1.56-.22c-.47-.09-1-.18-1.65-.34s-1.36-.19-2.08-.35-1.51-.33-2.35-.39-1.65-.3-2.54-.33-1.74-.22-2.65-.21-1.8-.13-2.71,0-1.82,0-2.73.06-1.8.17-2.69.19-1.75.17-2.57.31-1.64.2-2.38.32c-1.51.2-2.82.42-3.76.57Z" transform="translate(-52.79 -102.11)"/><path class="cls-9" d="M364.13,432.58c0,5.74-3.25,10.39-7.27,10.39s-7.28-4.65-7.28-10.39,3.26-10.4,7.28-10.4S364.13,426.84,364.13,432.58Z" transform="translate(-52.79 -102.11)"/><path class="cls-10" d="M360.67,430a3.82,3.82,0,1,1-3.81-3.82A3.82,3.82,0,0,1,360.67,430Z" transform="translate(-52.79 -102.11)"/><path class="cls-9" d="M434.38,432.58c0,5.74-3.26,10.39-7.28,10.39s-7.28-4.65-7.28-10.39,3.26-10.4,7.28-10.4S434.38,426.84,434.38,432.58Z" transform="translate(-52.79 -102.11)"/><path class="cls-10" d="M430.91,430a3.82,3.82,0,1,1-3.81-3.82A3.81,3.81,0,0,1,430.91,430Z" transform="translate(-52.79 -102.11)"/><path class="cls-11" d="M374.39,515.63s.64.27,1.65.58c.54.14,1.12.37,1.85.53s1.47.39,2.35.51,1.74.39,2.73.45,1.95.34,3,.35,2.12.2,3.23.23,2.23,0,3.35.09l.42,0h0c-.08,0,.2,0-.17,0h.41l.91,0c.61,0,1.22,0,1.82,0s1.25,0,1.73,0,1-.11,1.49-.12,1-.07,1.48-.07l1.44-.21,1.41-.16,1.29-.27a15.62,15.62,0,0,0,2.3-.54,15.88,15.88,0,0,0,1.8-.59,14.11,14.11,0,0,0,1.6-.7,2.56,2.56,0,0,1-.15.45,6.15,6.15,0,0,1-.61,1.21,8.49,8.49,0,0,1-1.3,1.68l-.92,1c-.35.3-.75.57-1.15.88s-.85.62-1.32.92l-1.5.75c-.52.26-1.07.5-1.64.75s-1.2.35-1.83.53a19.09,19.09,0,0,1-3.76.75c-.6,0-1.2.13-1.81.17l-.91.06-.22,0H393l-.5,0c-1.31-.08-2.62-.17-3.91-.31a31.83,31.83,0,0,1-3.74-.86,19.15,19.15,0,0,1-3.35-1.32,16.89,16.89,0,0,1-2.78-1.66,13.45,13.45,0,0,1-2.07-1.78,10.56,10.56,0,0,1-1.36-1.6,9.12,9.12,0,0,1-.71-1.16A3.56,3.56,0,0,1,374.39,515.63Z" transform="translate(-52.79 -102.11)"/><path class="cls-7" d="M365.87,500.35a20.14,20.14,0,0,0,1.94,1.39,21.31,21.31,0,0,0,2.36,1.34,34.36,34.36,0,0,0,3.2,1.42,27.13,27.13,0,0,0,3.91,1.31,41.13,41.13,0,0,0,4.49,1c1.58.21,3.2.54,4.87.67l5.08.25c1.59.07,3.43-.13,5.1-.18.85-.07,1.73,0,2.52-.16l2.37-.38,2.3-.34,2.16-.58,2.07-.55c.64-.23,1.24-.51,1.84-.74l1.69-.7,1.46-.79a14.53,14.53,0,0,0,2.29-1.44,16.26,16.26,0,0,0,1.37-1.09,4.65,4.65,0,0,0,.44-.44,3.53,3.53,0,0,1-.36.51,9.12,9.12,0,0,1-1.18,1.33,15.54,15.54,0,0,1-2.13,1.8l-1.39,1c-.52.31-1.1.58-1.69.89s-1.2.64-1.85.94l-2.09.75-2.22.79-2.42.5a26.18,26.18,0,0,1-5.06.74c-1.74.08-3.36.3-5.25.25l-5.26-.33c-1.74-.14-3.41-.6-5-.88a39.09,39.09,0,0,1-8.52-3.06,26.46,26.46,0,0,1-5.31-3.53,13.08,13.08,0,0,1-1.28-1.24Z" transform="translate(-52.79 -102.11)"/><path class="cls-6" d="M466.55,301.31a116.92,116.92,0,0,1-10.88,6.49c-3.74,2-7.57,3.78-11.5,5.38a122.71,122.71,0,0,1-12,4.28c-2.06.55-4.09,1.2-6.17,1.63l-3.12.7c-1,.21-2.11.35-3.16.53a119.11,119.11,0,0,1-12.7,1.23q-6.35.36-12.67.59c-8.45.32-16.9.48-25.31.73-4.2.15-8.43.24-12.5.62a22.25,22.25,0,0,0-2.84.45c-.23.05-.37.12-.54.17l-.79.28L351,325c-1.92.76-3.81,1.6-5.68,2.49a87.11,87.11,0,0,0-20.65,13.49c-6.05,5.47-11.05,12.19-13.24,19.86a33.23,33.23,0,0,0-1.16,11.78,41.14,41.14,0,0,0,2.67,11.7l.17.44,0,.46c-.49,7.12-.62,14.38-.58,21.58s.32,14.44.81,21.64,1.22,14.38,2.19,21.53,2.11,14.27,3.63,21.32a175.71,175.71,0,0,0,13.74,40.88c6.32,12.91,15.09,24.82,26.66,33.66a77.83,77.83,0,0,1-16.12-14.64A109,109,0,0,1,331.1,513a143.27,143.27,0,0,1-8.82-20.06,202.37,202.37,0,0,1-6.21-21c-1.71-7.11-3.09-14.29-4.19-21.5s-1.84-14.49-2.39-21.77-.89-14.57-1-21.86,0-14.57.42-21.94l.13.9a45.11,45.11,0,0,1-3-12.87,36.27,36.27,0,0,1,1.39-13.26c2.55-8.64,8.14-15.9,14.59-21.64a90.43,90.43,0,0,1,21.7-13.94c1.94-.91,3.91-1.77,5.92-2.55l1.52-.57.71-.25a9.55,9.55,0,0,1,1-.3,24.68,24.68,0,0,1,3.4-.52c4.34-.39,8.56-.42,12.79-.44,8.46,0,16.88,0,25.31-.1,4.21-.06,8.42-.14,12.62-.28a112.61,112.61,0,0,0,12.51-.89,103.72,103.72,0,0,0,12.3-2.34,121.75,121.75,0,0,0,12-3.75c3.95-1.42,7.82-3.07,11.63-4.87A121.44,121.44,0,0,0,466.55,301.31Z" transform="translate(-52.79 -102.11)"/><path class="cls-6" d="M497,329.45a50,50,0,0,1-6.3,4.48,76.19,76.19,0,0,1-6.93,3.8,80.66,80.66,0,0,1-8.36,3.5c-1.48.47-2.93,1-4.43,1.37a44.69,44.69,0,0,1-4.39,1c-.72.13-1.42.29-2.12.39l-2.08.21c-.67.06-1.32.15-2,.17l-1.86,0c-.59,0-1.15,0-1.69,0l-1.54-.24a10.26,10.26,0,0,1-2.43-.56c-1.31-.48-2-.78-2-.78s.81,0,2.12-.06a13.8,13.8,0,0,0,2.35-.23,22.87,22.87,0,0,0,3-.52c1.09-.22,2.25-.49,3.49-.84s2.51-.71,3.85-1.11,2.69-.88,4.09-1.32,2.8-1,4.21-1.44l8.33-2.93c2.66-1,5.16-1.83,7.33-2.55C494,330.25,497,329.45,497,329.45Z" transform="translate(-52.79 -102.11)"/><path class="cls-9" d="M356.86,800c0-112.87-3.82-244.59-3.82-244.59s-36.5,19.77-61,24V800" transform="translate(-52.79 -102.11)"/><path class="cls-9" d="M429.23,800c.11-111.8,3.81-242.59,3.81-242.59s36.51,19.78,61,24V800" transform="translate(-52.79 -102.11)"/><path class="cls-12" d="M357.71,545.11s7.1,23.86,33.89,34.33c0,0-24.66-1.06-45.43,13.49C346.17,592.93,347.78,560.65,357.71,545.11Z" transform="translate(-52.79 -102.11)"/><path class="cls-12" d="M428.51,545.11s-7.09,23.86-33.89,34.33c0,0,24.67-1.06,45.43,13.49C440.05,592.93,438.44,560.65,428.51,545.11Z" transform="translate(-52.79 -102.11)"/><path class="cls-9" d="M516.22,800c-6-41.39-13.6-76.67-22.18-76.67V581.25s42.79,94.57,65,218.75" transform="translate(-52.79 -102.11)"/><path class="cls-9" d="M269.37,800c6-41.39,14.09-78.48,22.68-78.48V579.44S249.25,675.83,227,800" transform="translate(-52.79 -102.11)"/><line class="cls-13" x1="338.81" y1="477.34" x2="338.81" y2="697.89"/><path class="cls-9" d="M387,420.77c.36-5.44,9.56-5.61,9.65,0a.6.6,0,1,0,1.2,0c-.12-7.37-11.58-7.17-12.05,0-.06.87,1.14.86,1.2,0Z" transform="translate(-52.79 -102.11)"/><rect class="cls-9" x="267.45" y="319.37" width="6.87" height="4.79"/><rect class="cls-9" x="403.3" y="320.04" width="6.87" height="4.79"/><path class="cls-14" d="M345.37,454.64s22.66,3,33.87-19.1c0,0,7.71-13,4.34-22.21s-40.75-3.93-47.74-1.09c0,0-7.47,3-7.95,16.8S329.46,453.55,345.37,454.64Z" transform="translate(-52.79 -102.11)"/><path class="cls-14" d="M438.37,454.64s-22.66,3-33.87-19.1c0,0-7.72-13-4.34-22.21s40.74-3.93,47.73-1.09c0,0,7.47,3,7.95,16.8S454.28,453.55,438.37,454.64Z" transform="translate(-52.79 -102.11)"/><path class="cls-15" d="M327.9,430.9c.17-5.59,1.23-14.94,6.67-17a69,69,0,0,1,20.94-4.56,82.84,82.84,0,0,1,16.94.91c2.84.43,6.28.66,8.95,1.82-.56-.25.41.28.53.39,5.72,5.05-.1,17-2.58,22-.75,1.53,1.33,2.89,2.08,1.36,3.25-6.55,8.16-17.48,3-24.45-1.19-1.59-2.46-1.95-4.22-2.36a93.6,93.6,0,0,0-19.9-2.48,69.78,69.78,0,0,0-25,4.23,11.31,11.31,0,0,0-7.19,6.7,37.68,37.68,0,0,0-2.54,11.71c0,.59-.09,1.18-.1,1.77a1.21,1.21,0,1,0,2.41,0Z" transform="translate(-52.79 -102.11)"/><path class="cls-15" d="M458.15,430.19c-.19-6.37-1.46-15.46-6.85-18.93-2.43-1.56-5.71-2.24-8.39-3A68.92,68.92,0,0,0,430,406a80.86,80.86,0,0,0-18.32.7,102.59,102.59,0,0,0-10.11,2,3.09,3.09,0,0,0-1,.59c-5.21,3.91-3.56,12.49-1.73,17.93a63.41,63.41,0,0,0,3.35,7.85c.76,1.52,2.84.16,2.08-1.37-2.57-5.19-8.11-16.54-2.7-21.89a3.56,3.56,0,0,1,.85-.59c.18-.1-.3.14-.19.09a16.28,16.28,0,0,1,2.78-.65c1.76-.4,3.53-.73,5.31-1a82.85,82.85,0,0,1,17.79-1,66.78,66.78,0,0,1,20.69,4.46c5.64,2.15,6.75,11.29,6.93,17.13a1.21,1.21,0,1,0,2.41,0Z" transform="translate(-52.79 -102.11)"/><path class="cls-6" d="M353,555.22c-2.38,1.36-4.79,2.66-7.22,3.95s-4.87,2.52-7.33,3.74c-1.23.61-2.46,1.22-3.7,1.81s-2.47,1.2-3.71,1.76l-3.74,1.73-3.77,1.67c-1.25.56-2.53,1.08-3.79,1.62s-2.54,1-3.83,1.54l-3.85,1.48-3.89,1.37c-1.3.48-2.62.86-3.93,1.29s-2.63.84-4,1.18-2.66.76-4,1.06l-4.06.88.78-.61c-1.85,4.4-3.65,8.85-5.37,13.31s-3.46,9-5.17,13.42-3.37,9-5,13.5-3.26,9-4.8,13.55-3.18,9-4.65,13.61l-4.49,13.66-4.35,13.71c-1.42,4.58-2.77,9.18-4.15,13.77-.68,2.3-1.41,4.58-2.07,6.88L251,702c-1.3,4.61-2.68,9.21-3.9,13.84l-3.75,13.89c-1.3,4.62-2.38,9.29-3.57,13.93l-1.74,7c-.59,2.33-1.18,4.65-1.69,7-1,4.68-2.16,9.34-3.25,14S231,781,230,785.73l-3,14.09,2.4-14.21c.81-4.73,1.6-9.47,2.57-14.17s1.85-9.43,2.82-14.14c.46-2.35,1-4.7,1.53-7l1.59-7c1.09-4.68,2.06-9.38,3.26-14l3.48-14c1.17-4.66,2.5-9.28,3.74-13.92s2.52-9.27,3.91-13.88,2.7-9.22,4.11-13.82l4.31-13.75c1.44-4.59,3-9.13,4.53-13.69s3.14-9.09,4.71-13.63,3.25-9,4.91-13.56,3.42-9,5.12-13.47,3.5-9,5.38-13.39,3.73-8.85,5.7-13.26l.22-.5.56-.11,4-.78c1.33-.25,2.64-.63,4-.94s2.63-.7,3.93-1.08,2.63-.74,3.92-1.19l3.88-1.28,3.86-1.38c1.29-.44,2.56-1,3.84-1.43s2.56-1,3.83-1.47l3.81-1.53,3.78-1.58c1.27-.52,2.51-1.09,3.77-1.63s2.51-1.1,3.76-1.67c2.5-1.11,5-2.28,7.45-3.45S350.59,556.46,353,555.22Z" transform="translate(-52.79 -102.11)"/><path class="cls-6" d="M433.12,557l9.4,4.18,9.63,4.23c1.76.79,3.59,1.55,5.44,2.35s3.75,1.58,5.64,2.37,3.79,1.55,5.66,2.32l5.51,2.15,5.19,1.92c1.67.55,3.24,1.1,4.69,1.61l4,1.26c1.18.41,2.24.65,3.11.89,1.74.46,2.73.76,2.73.76s-1-.12-2.81-.38c-.89-.14-2-.27-3.21-.55s-2.63-.51-4.14-.88-3.12-.81-4.83-1.29-3.49-1.07-5.33-1.68-3.72-1.28-5.61-2-3.83-1.47-5.73-2.27-3.79-1.61-5.64-2.45-3.66-1.68-5.4-2.52-3.41-1.68-5-2.48-3.05-1.6-4.41-2.33c-2.72-1.47-4.93-2.8-6.48-3.71S433.12,557,433.12,557Z" transform="translate(-52.79 -102.11)"/><path class="cls-16" d="M254.46,800,242.4,630.13a16.44,16.44,0,0,1,16.45-16.45H528a16.45,16.45,0,0,1,16.45,16.45L530.89,800" transform="translate(-52.79 -102.11)"/><path class="cls-17" d="M273,800,262.59,652.83a14.25,14.25,0,0,1,14.25-14.25H510a14.25,14.25,0,0,1,14.25,14.25L512.51,800" transform="translate(-52.79 -102.11)"/><path class="cls-18" d="M286.48,800,276,662.85a13.09,13.09,0,0,1,12.88-13.28H499.63a13.08,13.08,0,0,1,12.88,13.28L500.75,800" transform="translate(-52.79 -102.11)"/><path class="cls-19" d="M413.81,745.57A20.78,20.78,0,1,1,393,724.79,20.78,20.78,0,0,1,413.81,745.57Z" transform="translate(-52.79 -102.11)"/><path class="cls-6" d="M272.94,800c-.6-6.12-1.24-12.24-1.79-18.36l-1.69-18.37-1.67-18.37-1.59-18.38-3-36.76L260.28,653v-.16a16.58,16.58,0,0,1,2.49-8.78,15.86,15.86,0,0,1,3-3.52,16.52,16.52,0,0,1,8.23-4l1.15-.17,1.16-.06c.79,0,1.36,0,2.06,0h8l31.95,0,31.95.07,31.94.19c10.65,0,21.3.17,32,.29s21.29.25,31.94.43l16,.26,16,.34,16,.34,16,.43L494,639l-16,.34-16,.33L446,640q-16,.27-31.94.42c-10.65.12-21.3.24-32,.3l-31.94.19-31.95.07-31.95,0-8,0c-.64,0-1.4,0-1.93,0l-.84,0-.83.13a11,11,0,0,0-3.17,1,12.14,12.14,0,0,0-6.85,10.76v-.15l2.35,36.81,2.18,36.82,1,18.41.94,18.43.92,18.42C272.45,787.71,272.67,793.86,272.94,800Z" transform="translate(-52.79 -102.11)"/><path class="cls-20" d="M392.41,445.5a18.24,18.24,0,0,1-4.66,12c-5,5.67-10.67,6.33-9.34,14.72s10.34,7.28,13.67,5.28,9,0,9,0,5,1.33,4.33-4.5-2.83-7.67-6-7.5-5.33-9.65-6.16-14.5l-.84-4.85" transform="translate(-52.79 -102.11)"/><circle class="cls-21" cx="87.28" cy="283.71" r="87.28"/><g class="cls-22"><polygon class="cls-10" points="74.21 312.23 60.69 320.65 66.37 407.82 112.28 407.82 109.97 320.23 91.11 310.67 74.21 312.23"/><path class="cls-9" d="M148.45,418.55V421a5.75,5.75,0,0,1-5.76,5.75h-5.43A5.75,5.75,0,0,1,131.5,421v-2.46" transform="translate(-52.79 -102.11)"/><polyline class="cls-9" points="84.38 323.21 80.55 336.11 81.52 407.82 93.35 407.82 93.82 336.59 89.98 323.69"/><path class="cls-4" d="M153.84,404.71v9.46s-6.72,6.67-14,6.67h0c-7.31,0-14-6.67-14-6.67v-9.46" transform="translate(-52.79 -102.11)"/><path class="cls-5" d="M170.46,361.11s7.95-4.08,7.77,3.51-3.52,13.88-7.77,10.37" transform="translate(-52.79 -102.11)"/><path class="cls-5" d="M109.61,361.11s-8-4.08-7.77,3.51,3.52,13.88,7.77,10.37" transform="translate(-52.79 -102.11)"/><path class="cls-5" d="M173.15,352.75a39.88,39.88,0,0,0-2.56-13.84H109.14a15.53,15.53,0,0,1-.6,5.84,2.26,2.26,0,0,1-1.55,1.58c0,18.62,3.11,65.76,33.24,64.79C167,412,172.39,375,173.3,353.6A2.48,2.48,0,0,1,173.15,352.75Z" transform="translate(-52.79 -102.11)"/><path class="cls-23" d="M173.27,360.46c3.31-59.87-33.21-43.28-33.21-43.28h.17S103.72,300.59,107,360.46" transform="translate(-52.79 -102.11)"/><path class="cls-5" d="M139.87,342.57s3.26,1.34,9.34-1.19,15-6.08,18.24-1.63-1,44.05-6.23,44.79-8.17-5.78-21.36-5.78-16.17,6.53-21.37,5.78-9.49-40.34-6.23-44.79,12.17-.89,18.25,1.63,9.34,1.19,9.34,1.19" transform="translate(-52.79 -102.11)"/><path class="cls-5" d="M139.86,384.6s4.75,9.41,20.63,3c0,0-1.91,12.67-11.27,15.89,0,0-7.05-.48-7.05-5.21h-4.69c0,4.73-7,5.21-7,5.21-9.36-3.22-11.27-15.89-11.27-15.89,15.88,6.42,20.63-3,20.63-3" transform="translate(-52.79 -102.11)"/><path class="cls-8" d="M119.16,355a2.79,2.79,0,0,1,.35-.53,6.6,6.6,0,0,1,1.19-1.16,7.46,7.46,0,0,1,.93-.6,9.14,9.14,0,0,1,1.14-.51,9,9,0,0,1,1.31-.34l.69-.1.71,0a6.57,6.57,0,0,1,1.4.12,3.07,3.07,0,0,1,.67.14l.64.2a7.59,7.59,0,0,1,1.15.53,5,5,0,0,1,.92.63,4.82,4.82,0,0,1,.69.64,6.07,6.07,0,0,1,.46.56,5,5,0,0,1,.35.52s-.24,0-.63-.09c-.19,0-.42-.07-.66-.13s-.55-.08-.85-.14a8.35,8.35,0,0,0-.94-.16c-.34,0-.67-.12-1-.13s-.7-.1-1.07-.09-.73-.05-1.1,0-.73,0-1.1,0-.72.07-1.08.08-.71.07-1,.12l-1,.14c-.61.08-1.14.17-1.52.23Z" transform="translate(-52.79 -102.11)"/><path class="cls-8" d="M147.53,355a2.62,2.62,0,0,1,.36-.53,6.48,6.48,0,0,1,1.18-1.16,7.61,7.61,0,0,1,.94-.6,8,8,0,0,1,1.14-.51,8.52,8.52,0,0,1,1.3-.34l.69-.1.71,0a6.57,6.57,0,0,1,1.4.12,3,3,0,0,1,.67.14l.65.2a7,7,0,0,1,1.14.53,5,5,0,0,1,.92.63,4.34,4.34,0,0,1,.69.64,6.07,6.07,0,0,1,.46.56,5,5,0,0,1,.35.52s-.24,0-.62-.09c-.19,0-.43-.07-.67-.13s-.55-.08-.84-.14a8.54,8.54,0,0,0-.95-.16c-.34,0-.67-.12-1-.13s-.71-.1-1.08-.09-.72-.05-1.09,0-.74,0-1.1,0-.73.07-1.09.08-.71.07-1,.12l-1,.14c-.61.08-1.14.17-1.52.23Z" transform="translate(-52.79 -102.11)"/><path class="cls-9" d="M128.4,361.51c0,2.32-1.32,4.2-2.94,4.2s-2.94-1.88-2.94-4.2,1.32-4.19,2.94-4.19S128.4,359.2,128.4,361.51Z" transform="translate(-52.79 -102.11)"/><path class="cls-10" d="M127,360.49a1.54,1.54,0,1,1-1.54-1.55A1.54,1.54,0,0,1,127,360.49Z" transform="translate(-52.79 -102.11)"/><path class="cls-9" d="M156.77,361.51c0,2.32-1.31,4.2-2.94,4.2s-2.93-1.88-2.93-4.2,1.31-4.19,2.93-4.19S156.77,359.2,156.77,361.51Z" transform="translate(-52.79 -102.11)"/><path class="cls-10" d="M155.38,360.49a1.55,1.55,0,1,1-1.55-1.55A1.54,1.54,0,0,1,155.38,360.49Z" transform="translate(-52.79 -102.11)"/><path class="cls-7" d="M129.1,388.89a8.12,8.12,0,0,0,.78.56,7.31,7.31,0,0,0,1,.54c.39.17.8.41,1.29.58a11.69,11.69,0,0,0,1.58.53,16,16,0,0,0,1.81.4c.64.09,1.3.22,2,.27l2,.1c.64,0,1.39-.05,2.06-.07.35,0,.7,0,1-.06l1-.16.93-.14.87-.23.83-.22c.26-.09.51-.2.75-.3l.68-.28.59-.32a6.07,6.07,0,0,0,.93-.58c.25-.17.42-.34.55-.44l.18-.18a1.21,1.21,0,0,1-.15.21,4.47,4.47,0,0,1-.47.53,6.14,6.14,0,0,1-.86.73l-.57.41-.68.36c-.24.12-.48.26-.75.38l-.84.3-.9.32-1,.2a10.14,10.14,0,0,1-2,.3c-.7,0-1.36.12-2.12.1l-2.12-.13c-.71-.06-1.38-.25-2-.36a11.11,11.11,0,0,1-1.85-.55,13.1,13.1,0,0,1-1.59-.68,11.2,11.2,0,0,1-2.15-1.43,6.19,6.19,0,0,1-.51-.5Z" transform="translate(-52.79 -102.11)"/><path class="cls-9" d="M125.46,509.93c0-45.59-1.54-98.8-1.54-98.8s-14.75,8-24.64,9.71v89.09" transform="translate(-52.79 -102.11)"/><path class="cls-9" d="M154.7,509.93c0-45.16,1.54-98,1.54-98s14.74,8,24.63,9.71v88.28" transform="translate(-52.79 -102.11)"/><path class="cls-24" d="M125.81,407a23.49,23.49,0,0,0,13.69,13.87s-10-.43-18.35,5.45C121.15,426.29,121.79,413.25,125.81,407Z" transform="translate(-52.79 -102.11)"/><path class="cls-24" d="M154.4,407a23.49,23.49,0,0,1-13.69,13.87s10-.43,18.36,5.45C159.07,426.29,158.42,413.25,154.4,407Z" transform="translate(-52.79 -102.11)"/><path class="cls-9" d="M188.83,509.93c-2.41-16.72-5.49-31-9-31V421.57s17.29,38.2,26.27,88.36" transform="translate(-52.79 -102.11)"/><path class="cls-9" d="M91.12,509.93c2.42-16.72,5.69-31.7,9.16-31.7V420.84A431.85,431.85,0,0,0,74,509.93" transform="translate(-52.79 -102.11)"/></g><path class="cls-20" d="M139.43,369.9a7.34,7.34,0,0,1-1.89,4.85c-2,2.3-4.31,2.57-3.77,6s4.18,3,5.53,2.14,3.64,0,3.64,0,2,.54,1.75-1.83-1.14-3.1-2.42-3-2.16-3.91-2.5-5.87l-.34-2" transform="translate(-52.79 -102.11)"/><path class="cls-25" d="M230.06,455a23.49,23.49,0,1,1-23.49-23.49A23.49,23.49,0,0,1,230.06,455Z" transform="translate(-52.79 -102.11)"/><path class="cls-21" d="M206.57,468.68c-.52-.29-13-7.38-13-17.4s12.49-9.26,13-3.45c.52-5.81,13-6.58,13,3.45S207.09,468.39,206.57,468.68Z" transform="translate(-52.79 -102.11)"/><circle class="cls-21" cx="260.63" cy="182.13" r="78.59" transform="translate(-105.24 135.53) rotate(-45)"/><g class="cls-26"><path class="cls-27" d="M290.58,155.5c2.86-51.12-28.76-36.95-28.76-36.95H262s-31.62-14.17-28.75,37" transform="translate(-52.79 -102.11)"/><path class="cls-5" d="M288.13,152.41s6.92-3.54,6.76,3.05-3.06,12.06-6.76,9" transform="translate(-52.79 -102.11)"/><path class="cls-5" d="M235.26,152.41s-6.92-3.54-6.76,3.05,3.06,12.06,6.76,9" transform="translate(-52.79 -102.11)"/><rect class="cls-21" x="194.9" y="95.2" width="26.68" height="84.43"/><path class="cls-9" d="M250.7,281.73c0-39.62-1.34-85.85-1.34-85.85s-12.81,6.94-21.41,8.43v77.42" transform="translate(-52.79 -102.11)"/><path class="cls-9" d="M272.35,281.73c0-39.24,1.34-85.15,1.34-85.15s12.81,6.94,21.41,8.44v76.71" transform="translate(-52.79 -102.11)"/><path class="cls-9" d="M302.89,281.73c-2.1-14.53-4.78-26.91-7.79-26.91V205a360.93,360.93,0,0,1,22.83,76.78" transform="translate(-52.79 -102.11)"/><path class="cls-9" d="M220,281.73c2.1-14.53,4.95-27.54,8-27.54V204.31a375.3,375.3,0,0,0-22.83,77.42" transform="translate(-52.79 -102.11)"/><path class="cls-4" d="M273.7,190.3v8.22s-5.85,5.79-12.2,5.79h0c-6.35,0-12.2-5.79-12.2-5.79V190.3" transform="translate(-52.79 -102.11)"/><path class="cls-28" d="M290.61,133.12" transform="translate(-52.79 -102.11)"/><path class="cls-28" d="M290.7,143.2" transform="translate(-52.79 -102.11)"/><path class="cls-29" d="M233,142.94c.43,17.85,4.33,53.71,28.84,52.92,24.39.79,28.38-34.73,28.84-52.66" transform="translate(-52.79 -102.11)"/><path class="cls-5" d="M261.55,136.3s2.83,1.16,8.12-1,13-5.29,15.85-1.42-.9,38.28-5.41,38.92-7.1-5-18.57-5-14.05,5.67-18.56,5-8.25-35.05-5.42-38.92,10.57-.77,15.86,1.42,8.12,1,8.12,1" transform="translate(-52.79 -102.11)"/><path class="cls-27" d="M243.56,147.11a2.13,2.13,0,0,1,.3-.46,5.6,5.6,0,0,1,1-1,5.14,5.14,0,0,1,.81-.52,7.56,7.56,0,0,1,1-.45,7.78,7.78,0,0,1,1.13-.29l.6-.09.61,0a6.22,6.22,0,0,1,1.22.11,2.94,2.94,0,0,1,.59.12c.19.06.38.11.56.18a5.28,5.28,0,0,1,1,.46,4,4,0,0,1,.8.55,3.6,3.6,0,0,1,.6.55,3.77,3.77,0,0,1,.4.49,3.94,3.94,0,0,1,.31.45s-.22,0-.55-.08c-.16,0-.37-.06-.58-.12s-.47-.06-.73-.12-.53-.12-.82-.14-.58-.1-.89-.11-.62-.08-.93-.07-.64,0-1,0-.64,0-1,0-.64.06-.95.06-.61.06-.9.11-.58.07-.84.12c-.53.07-1,.14-1.32.2Z" transform="translate(-52.79 -102.11)"/><path class="cls-27" d="M268.21,147.11a2.55,2.55,0,0,1,.31-.46,5.2,5.2,0,0,1,1-1,6.27,6.27,0,0,1,.81-.52,8.22,8.22,0,0,1,1-.45,7.92,7.92,0,0,1,1.14-.29l.6-.09.61,0a6.22,6.22,0,0,1,1.22.11,2.71,2.71,0,0,1,.58.12c.19.06.38.11.56.18a5.09,5.09,0,0,1,1,.46,4.34,4.34,0,0,1,.8.55,3.6,3.6,0,0,1,.6.55c.16.17.29.35.4.49a3,3,0,0,1,.3.45s-.21,0-.54-.08A5.48,5.48,0,0,1,278,147c-.21-.06-.48-.06-.73-.12s-.53-.12-.83-.14-.58-.1-.89-.11-.61-.08-.93-.07-.63,0-1,0-.64,0-1,0-.63.06-.94.06-.62.06-.91.11-.57.07-.83.12c-.53.07-1,.14-1.32.2Z" transform="translate(-52.79 -102.11)"/><path class="cls-9" d="M251.59,152.76c0,2-1.15,3.65-2.56,3.65s-2.55-1.63-2.55-3.65,1.14-3.65,2.55-3.65S251.59,150.75,251.59,152.76Z" transform="translate(-52.79 -102.11)"/><path class="cls-10" d="M250.37,151.87a1.34,1.34,0,1,1-1.34-1.35A1.34,1.34,0,0,1,250.37,151.87Z" transform="translate(-52.79 -102.11)"/><path class="cls-9" d="M276.24,152.76c0,2-1.14,3.65-2.55,3.65s-2.56-1.63-2.56-3.65,1.15-3.65,2.56-3.65S276.24,150.75,276.24,152.76Z" transform="translate(-52.79 -102.11)"/><path class="cls-10" d="M275,151.87a1.34,1.34,0,1,1-1.34-1.35A1.34,1.34,0,0,1,275,151.87Z" transform="translate(-52.79 -102.11)"/><path class="cls-5" d="M266.84,180.05c-2.44,2.59-9.16,2.59-11.6,0-.92-1-2.39.49-1.47,1.47,3.2,3.4,11.34,3.4,14.54,0,.92-1-.55-2.46-1.47-1.47Z" transform="translate(-52.79 -102.11)"/></g><path class="cls-20" d="M261.42,157a7.4,7.4,0,0,1-1.89,4.85c-2,2.3-4.32,2.57-3.78,6s4.18,2.95,5.53,2.14,3.65,0,3.65,0,2,.54,1.75-1.82-1.15-3.11-2.43-3-2.16-3.91-2.49-5.87l-.34-2" transform="translate(-52.79 -102.11)"/><circle class="cls-30" cx="269.03" cy="146.4" r="21.19"/><text class="cls-31" transform="translate(255.01 155.38)">( ... )</text><circle class="cls-21" cx="657.95" cy="386.35" r="87.11" transform="translate(-154.87 217) rotate(-25.37)"/><g class="cls-32"><rect class="cls-9" x="587.57" y="311.03" width="31.1" height="93.52"/><path class="cls-33" d="M682.64,341.13s21.12,2.27,24.52,11.24H685" transform="translate(-52.79 -102.11)"/><path class="cls-34" d="M668.69,407.06v9s-6.37,6.31-13.29,6.31h0c-6.92,0-13.28-6.31-13.28-6.31v-9" transform="translate(-52.79 -102.11)"/><path class="cls-34" d="M684.41,365.79s7.53-3.85,7.36,3.33-3.33,13.14-7.36,9.81" transform="translate(-52.79 -102.11)"/><path class="cls-34" d="M626.82,365.79s-7.53-3.85-7.36,3.33,3.33,13.14,7.36,9.81" transform="translate(-52.79 -102.11)"/><path class="cls-5" d="M687.1,344.78s4.2,69.49-31.3,68.35c-35.51,1.14-31.31-68.35-31.31-68.35" transform="translate(-52.79 -102.11)"/><path class="cls-5" d="M655.46,348.25s3.08,1.26,8.84-1.13,14.18-5.75,17.27-1.54-1,41.69-5.9,42.4-7.73-5.48-20.22-5.48-15.31,6.18-20.22,5.48-9-38.19-5.9-42.4,11.51-.84,17.27,1.54,8.84,1.13,8.84,1.13" transform="translate(-52.79 -102.11)"/><path class="cls-5" d="M655.45,388s4.49,8.9,19.53,2.83c0,0-1.81,12-10.67,15,0,0-6.67-.44-6.67-4.92h-4.45c0,4.48-6.67,4.92-6.67,4.92-8.86-3-10.66-15-10.66-15,15,6.07,19.52-2.83,19.52-2.83" transform="translate(-52.79 -102.11)"/><path class="cls-8" d="M635.86,360a2.64,2.64,0,0,1,.33-.5,5.94,5.94,0,0,1,1.13-1.1,6.08,6.08,0,0,1,.88-.57,8.34,8.34,0,0,1,1.08-.48,7.91,7.91,0,0,1,1.23-.32l.66-.09.66,0a8.33,8.33,0,0,1,1.33.11,3.48,3.48,0,0,1,.64.14l.61.19a7.68,7.68,0,0,1,1.08.5,4.92,4.92,0,0,1,.87.6,4.38,4.38,0,0,1,.66.6,6.74,6.74,0,0,1,.43.53,4.34,4.34,0,0,1,.33.5s-.23,0-.59-.09a4.73,4.73,0,0,1-.63-.13c-.23-.06-.52-.07-.8-.13s-.57-.13-.9-.15-.63-.11-1-.12-.67-.09-1-.08-.69,0-1,0-.69,0-1,0-.69.06-1,.07-.67.07-1,.12l-.91.12-1.44.22Z" transform="translate(-52.79 -102.11)"/><path class="cls-8" d="M662.71,360a3.18,3.18,0,0,1,.34-.5,5.84,5.84,0,0,1,1.12-1.1,6.82,6.82,0,0,1,.89-.57,8.83,8.83,0,0,1,1.07-.48,8,8,0,0,1,1.24-.32c.21,0,.43-.07.65-.09s.45,0,.67,0A8.42,8.42,0,0,1,670,357a3.48,3.48,0,0,1,.64.14l.6.19a7.82,7.82,0,0,1,1.09.5,5.32,5.32,0,0,1,.87.6,4.27,4.27,0,0,1,.65.6c.18.2.32.38.44.53a4.34,4.34,0,0,1,.33.5s-.23,0-.59-.09a5.19,5.19,0,0,1-.64-.13c-.22-.06-.51-.07-.79-.13s-.58-.13-.9-.15-.63-.11-1-.12-.67-.09-1-.08-.69,0-1,0-.7,0-1,0-.69.06-1,.07-.67.07-1,.12l-.91.12-1.43.22Z" transform="translate(-52.79 -102.11)"/><path class="cls-9" d="M644.6,366.18c0,2.19-1.24,4-2.78,4s-2.78-1.78-2.78-4,1.24-4,2.78-4S644.6,364,644.6,366.18Z" transform="translate(-52.79 -102.11)"/><path class="cls-10" d="M643.28,365.2a1.46,1.46,0,1,1-1.46-1.46A1.46,1.46,0,0,1,643.28,365.2Z" transform="translate(-52.79 -102.11)"/><path class="cls-9" d="M671.46,366.18c0,2.19-1.25,4-2.78,4s-2.78-1.78-2.78-4,1.24-4,2.78-4S671.46,364,671.46,366.18Z" transform="translate(-52.79 -102.11)"/><path class="cls-10" d="M670.14,365.2a1.46,1.46,0,1,1-1.46-1.46A1.47,1.47,0,0,1,670.14,365.2Z" transform="translate(-52.79 -102.11)"/><path class="cls-11" d="M648.52,397.93s.25.1.64.22c.2.06.42.14.7.2s.57.15.9.2a10.47,10.47,0,0,0,1,.17c.37,0,.74.13,1.15.13s.81.08,1.23.09.86,0,1.29,0h.26l.35,0h.69c.22,0,.48,0,.66,0l.57-.05.57,0,.55-.08.54-.07.49-.1a6.06,6.06,0,0,0,.88-.2l.69-.23a3.91,3.91,0,0,0,.61-.27,1.08,1.08,0,0,1-.05.17,3.5,3.5,0,0,1-.24.47,3.21,3.21,0,0,1-.5.64l-.35.37c-.13.11-.28.21-.44.33a4.89,4.89,0,0,1-.5.35l-.57.29-.63.29-.7.2a7.44,7.44,0,0,1-1.44.28c-.23,0-.46.06-.69.07l-.35,0h-.43q-.76,0-1.5-.12a11,11,0,0,1-1.43-.33,7.27,7.27,0,0,1-1.28-.51,5.71,5.71,0,0,1-1.06-.63,5.58,5.58,0,0,1-.8-.68,5,5,0,0,1-.52-.61,4.87,4.87,0,0,1-.27-.44C648.54,398,648.52,397.93,648.52,397.93Z" transform="translate(-52.79 -102.11)"/><path class="cls-7" d="M645.27,392.09a6.42,6.42,0,0,0,.74.53,8.49,8.49,0,0,0,.9.51c.37.16.76.39,1.22.55a11.46,11.46,0,0,0,1.5.5,16.55,16.55,0,0,0,1.71.38c.61.08,1.23.21,1.87.26l1.94.09c.61,0,1.31-.05,2-.06.32,0,.66,0,1-.07l.91-.14.88-.13.83-.22.78-.21c.25-.09.48-.2.71-.29l.65-.27.56-.29a6.28,6.28,0,0,0,.87-.56,5.26,5.26,0,0,0,.52-.41l.17-.17a2.07,2.07,0,0,1-.13.19,3.65,3.65,0,0,1-.46.51,5.44,5.44,0,0,1-.81.69l-.53.39c-.2.12-.42.22-.65.34l-.71.36-.79.28-.85.31-.93.19a9.77,9.77,0,0,1-1.93.28c-.67,0-1.29.11-2,.1l-2-.13a18.9,18.9,0,0,1-1.93-.34,10.2,10.2,0,0,1-1.75-.52,10.55,10.55,0,0,1-1.51-.65,7.33,7.33,0,0,1-1.19-.7,8.59,8.59,0,0,1-.84-.65,5.88,5.88,0,0,1-.49-.47Z" transform="translate(-52.79 -102.11)"/><path class="cls-9" d="M641.82,506.66c0-43.16-1.46-93.52-1.46-93.52s-14,7.56-23.32,9.19v84.33" transform="translate(-52.79 -102.11)"/><path class="cls-9" d="M669.49,506.66c0-43.25,1.46-93.85,1.46-93.85s14,7.65,23.32,9.3v84.55" transform="translate(-52.79 -102.11)"/><path class="cls-9" d="M701.75,506.66c-2.29-16-5.2-29.66-8.48-29.66V422a401.58,401.58,0,0,1,24.87,84.62" transform="translate(-52.79 -102.11)"/><path class="cls-9" d="M608.37,506.66c2.29-15.83,5.39-30,8.67-30V422.33a408.31,408.31,0,0,0-24.86,84.33" transform="translate(-52.79 -102.11)"/><path class="cls-35" d="M624.18,344.78a31.54,31.54,0,1,1,63.08,0" transform="translate(-52.79 -102.11)"/><g class="cls-36"><path class="cls-37" d="M655.72,313.09s-13.9,12.85-13.9,31.69H622.37l.77-31.69Z" transform="translate(-52.79 -102.11)"/><path class="cls-37" d="M655.8,313.09s13.9,12.85,13.9,31.69h19.45l-.77-31.69Z" transform="translate(-52.79 -102.11)"/></g><path class="cls-8" d="M687.4,344.58s1.41,13.54-1.1,24.7c0,0-3.52-21.86-10.82-21.86a5,5,0,0,0-4.65,4.08,4.77,4.77,0,0,0-5.07-3.74c-4.38.11-10,0-10,3.74,0-3.74-5.59-3.63-10-3.74a4.76,4.76,0,0,0-5.07,3.74,5,5,0,0,0-4.66-4.08c-7.3,0-10.82,21.86-10.82,21.86-2.5-11.16-1.09-24.7-1.09-24.7" transform="translate(-52.79 -102.11)"/><path class="cls-38" d="M626.81,499.37V487.6a5.44,5.44,0,0,1,5.45-5.44h46.31A5.44,5.44,0,0,1,684,487.6v12.22" transform="translate(-52.79 -102.11)"/><path class="cls-38" d="M642.48,422.08c-5.87,6.7-7.69,17-7.76,25.53a1.14,1.14,0,0,0,2.27,0c.06-7.9,1.67-17.73,7.09-23.93,1-1.09-.64-2.7-1.6-1.6Z" transform="translate(-52.79 -102.11)"/><path class="cls-38" d="M666.88,423.68c5.43,6.2,7,16,7.09,23.93a1.14,1.14,0,0,0,2.27,0c-.06-8.56-1.89-18.83-7.75-25.53-1-1.1-2.57.51-1.61,1.6Z" transform="translate(-52.79 -102.11)"/></g><path class="cls-20" d="M654.79,373.21a7.36,7.36,0,0,1-1.89,4.86c-2,2.29-4.31,2.56-3.77,6s4.18,2.94,5.53,2.13,3.64,0,3.64,0,2,.54,1.75-1.82-1.14-3.1-2.42-3-2.16-3.91-2.5-5.87l-.34-2" transform="translate(-52.79 -102.11)"/><circle class="cls-39" cx="721.78" cy="454.77" r="23.28" transform="translate(103.71 991.61) rotate(-80.71)"/><polygon class="cls-21" points="668.98 339.7 673.19 348.24 682.61 349.61 675.8 356.25 677.4 365.63 668.98 361.2 660.56 365.63 662.17 356.25 655.35 349.61 664.77 348.24 668.98 339.7"/><circle class="cls-21" cx="487.82" cy="78.65" r="78.65"/><g class="cls-40"><polygon class="cls-41" points="475.75 101.77 462.98 109.72 468.34 192.02 511.69 192.02 509.51 109.32 491.7 100.29 475.75 101.77"/><path class="cls-4" d="M553.88,194.79v8.93S547.53,210,540.63,210h0c-6.9,0-13.25-6.29-13.25-6.29v-8.93" transform="translate(-52.79 -102.11)"/><path class="cls-5" d="M569.57,153.62s7.51-3.84,7.34,3.32-3.33,13.11-7.34,9.79" transform="translate(-52.79 -102.11)"/><path class="cls-5" d="M512.13,153.62s-7.52-3.84-7.34,3.32,3.32,13.11,7.34,9.79" transform="translate(-52.79 -102.11)"/><path class="cls-5" d="M572.29,137.28a6.69,6.69,0,0,1-2-1.7c-.32-.4-.63-.8-.93-1.21l-.33-.47c0-.06-.43-.56-.1-.15a3,3,0,0,1-.56-1.08H511.19a10.78,10.78,0,0,1,.12,5.17,2.41,2.41,0,0,1-1.66,1.59c0,17.4,2.81,62.32,31.38,61.39,29.81,1,31.56-48,31.36-63.51Z" transform="translate(-52.79 -102.11)"/><path class="cls-5" d="M540.69,136.12s3.08,1.26,8.82-1.12,14.14-5.74,17.22-1.54-1,41.59-5.88,42.29-7.72-5.46-20.17-5.46-15.27,6.16-20.17,5.46-9-38.09-5.88-42.29,11.48-.84,17.22,1.54,8.82,1.12,8.82,1.12" transform="translate(-52.79 -102.11)"/><path class="cls-5" d="M540.68,175.81s4.48,8.87,19.48,2.82c0,0-1.8,12-10.64,15,0,0-6.66-.45-6.66-4.91h-4.43c0,4.46-6.65,4.91-6.65,4.91-8.84-3-10.64-15-10.64-15,15,6.05,19.48-2.82,19.48-2.82" transform="translate(-52.79 -102.11)"/><path class="cls-8" d="M521.14,147.87a2.31,2.31,0,0,1,.33-.5,5.84,5.84,0,0,1,1.12-1.1,6.31,6.31,0,0,1,.88-.56,9.78,9.78,0,0,1,1.08-.49,7.9,7.9,0,0,1,1.23-.31c.22,0,.43-.08.65-.1s.45,0,.67,0a6.42,6.42,0,0,1,1.32.11,2.7,2.7,0,0,1,.64.14l.61.18a8.25,8.25,0,0,1,1.08.5,5.78,5.78,0,0,1,.87.6,4.81,4.81,0,0,1,.65.6,5.29,5.29,0,0,1,.43.53,5.12,5.12,0,0,1,.34.49s-.24,0-.6-.08c-.18,0-.4-.07-.63-.13s-.51-.07-.79-.13a8,8,0,0,0-.9-.15c-.32,0-.63-.11-1-.13s-.67-.08-1-.08-.68-.05-1,0-.69,0-1,0-.69.06-1,.07-.66.06-1,.12-.62.07-.91.12l-1.43.22Z" transform="translate(-52.79 -102.11)"/><path class="cls-8" d="M547.93,147.87a2.31,2.31,0,0,1,.33-.5,5.56,5.56,0,0,1,1.12-1.1,5.77,5.77,0,0,1,.88-.56,9,9,0,0,1,1.08-.49,7.63,7.63,0,0,1,1.23-.31c.21,0,.43-.08.65-.1s.44,0,.67,0a6.48,6.48,0,0,1,1.32.11,2.82,2.82,0,0,1,.64.14l.6.18a7.19,7.19,0,0,1,1.08.5,5.42,5.42,0,0,1,.88.6,4.81,4.81,0,0,1,.65.6,5.29,5.29,0,0,1,.43.53,3.87,3.87,0,0,1,.33.49s-.23,0-.59-.08c-.18,0-.4-.07-.63-.13s-.52-.07-.8-.13a7.5,7.5,0,0,0-.89-.15c-.32,0-.63-.11-1-.13s-.66-.08-1-.08-.69-.05-1,0-.7,0-1,0-.69.06-1,.07-.67.06-1,.12-.62.07-.91.12l-1.43.22Z" transform="translate(-52.79 -102.11)"/><path class="cls-9" d="M529.86,154c0,2.19-1.24,4-2.77,4s-2.78-1.77-2.78-4,1.24-4,2.78-4S529.86,151.82,529.86,154Z" transform="translate(-52.79 -102.11)"/><path class="cls-10" d="M528.54,153a1.46,1.46,0,1,1-1.45-1.46A1.46,1.46,0,0,1,528.54,153Z" transform="translate(-52.79 -102.11)"/><path class="cls-9" d="M556.65,154c0,2.19-1.24,4-2.78,4s-2.77-1.77-2.77-4,1.24-4,2.77-4S556.65,151.82,556.65,154Z" transform="translate(-52.79 -102.11)"/><path class="cls-10" d="M555.33,153a1.46,1.46,0,1,1-1.46-1.46A1.46,1.46,0,0,1,555.33,153Z" transform="translate(-52.79 -102.11)"/><path class="cls-11" d="M533.77,185.68s.25.16.63.36c.21.09.43.23.71.33s.56.24.9.32a7.49,7.49,0,0,0,1,.28,8.09,8.09,0,0,0,1.15.21c.4,0,.81.13,1.23.15s.85,0,1.28,0l.16,0h.1l.35,0c.23,0,.46,0,.69,0s.48,0,.66,0a3.72,3.72,0,0,1,.57-.08,5.27,5.27,0,0,1,.56,0l.55-.13.54-.1.49-.17a4.75,4.75,0,0,0,.88-.33,6.16,6.16,0,0,0,.69-.37,5.46,5.46,0,0,0,.61-.44l-.06.28a7.67,7.67,0,0,1-.73,1.8l-.35.6c-.13.18-.29.35-.44.55s-.32.38-.5.56l-.57.47c-.2.16-.41.32-.63.47s-.46.22-.7.33a4.88,4.88,0,0,1-1.43.47c-.23,0-.46.08-.69.1l-.35,0h-.43c-.5-.05-1-.11-1.49-.2a8.19,8.19,0,0,1-1.43-.53,6.23,6.23,0,0,1-1.28-.83,6.46,6.46,0,0,1-1.06-1,7,7,0,0,1-.79-1.1,7.44,7.44,0,0,1-.52-1c-.13-.28-.21-.57-.27-.72S533.77,185.68,533.77,185.68Z" transform="translate(-52.79 -102.11)"/><path class="cls-7" d="M530.52,179s.26.21.74.52a9.5,9.5,0,0,0,.9.52c.37.16.76.38,1.22.54a10.54,10.54,0,0,0,1.5.5,13.87,13.87,0,0,0,1.71.38c.6.08,1.22.21,1.85.26l1.94.09c.61,0,1.31,0,2-.06.32,0,.66,0,1-.07l.9-.14.88-.13.82-.22.79-.21.7-.28.65-.27.55-.3a5.19,5.19,0,0,0,.88-.55,5.08,5.08,0,0,0,.52-.42,1.45,1.45,0,0,0,.17-.16,1.51,1.51,0,0,1-.14.19,3.38,3.38,0,0,1-.45.51,5.44,5.44,0,0,1-.81.68l-.53.39c-.2.12-.42.22-.64.34l-.71.36-.8.28-.84.31-.93.19a11.37,11.37,0,0,1-1.93.28c-.66,0-1.28.11-2,.09l-2-.12c-.66-.06-1.3-.23-1.92-.34a10.48,10.48,0,0,1-1.75-.52,10.92,10.92,0,0,1-1.5-.65,7.21,7.21,0,0,1-1.18-.7,9,9,0,0,1-.84-.64,5.92,5.92,0,0,1-.49-.47Z" transform="translate(-52.79 -102.11)"/><path class="cls-42" d="M527.09,294.12c0-43-1.46-93.27-1.46-93.27s-13.92,7.54-23.26,9.16v84.11" transform="translate(-52.79 -102.11)"/><path class="cls-42" d="M554.69,294.12c0-42.63,1.45-92.51,1.45-92.51s13.92,7.54,23.26,9.17v83.34" transform="translate(-52.79 -102.11)"/><path class="cls-43" d="M527.41,196.92A22.2,22.2,0,0,0,540.34,210,31.17,31.17,0,0,0,523,215.16S523.63,202.85,527.41,196.92Z" transform="translate(-52.79 -102.11)"/><path class="cls-43" d="M554.41,196.92A22.17,22.17,0,0,1,541.49,210a31.15,31.15,0,0,1,17.32,5.15S558.2,202.85,554.41,196.92Z" transform="translate(-52.79 -102.11)"/><path class="cls-42" d="M587.86,294.12c-2.28-15.78-5.19-29.23-8.46-29.23V210.7a392.15,392.15,0,0,1,24.8,83.42" transform="translate(-52.79 -102.11)"/><path class="cls-42" d="M494.73,294.12c2.28-15.78,5.37-29.92,8.64-29.92V210a407.37,407.37,0,0,0-24.8,84.11" transform="translate(-52.79 -102.11)"/><path class="cls-9" d="M538.59,151.5c.14-2.07,3.64-2.13,3.68,0a.23.23,0,1,0,.46,0c-.05-2.81-4.42-2.73-4.6,0,0,.34.44.33.46,0Z" transform="translate(-52.79 -102.11)"/><rect class="cls-9" x="460.33" y="49.67" width="2.62" height="1.83"/><rect class="cls-9" x="512.14" y="49.92" width="2.62" height="1.83"/><path class="cls-9" d="M522.71,164.42a13.09,13.09,0,0,0,12.91-7.28s2.94-5,1.66-8.48-15.54-1.49-18.21-.41c0,0-2.85,1.14-3,6.41S516.64,164,522.71,164.42Z" transform="translate(-52.79 -102.11)"/><path class="cls-9" d="M558.17,164.42a13.11,13.11,0,0,1-12.92-7.28s-2.94-5-1.65-8.48,15.54-1.49,18.2-.41c0,0,2.85,1.14,3,6.41S564.24,164,558.17,164.42Z" transform="translate(-52.79 -102.11)"/><path class="cls-15" d="M516,155.37c.07-2.13.47-5.7,2.55-6.5a26.3,26.3,0,0,1,8-1.74,31.66,31.66,0,0,1,6.45.35,14.22,14.22,0,0,1,3.42.69c-.22-.09.15.11.2.15,2.18,1.93,0,6.48-1,8.39-.29.58.5,1.1.79.52,1.24-2.5,3.11-6.67,1.13-9.32A2.37,2.37,0,0,0,536,147a36,36,0,0,0-7.59-.94,26.59,26.59,0,0,0-9.52,1.61,4.33,4.33,0,0,0-2.74,2.56,14,14,0,0,0-1,4.46c0,.23,0,.45,0,.68a.46.46,0,1,0,.92,0Z" transform="translate(-52.79 -102.11)"/><path class="cls-15" d="M565.71,155.1c-.07-2.43-.55-5.9-2.61-7.22a11.9,11.9,0,0,0-3.2-1.15,26.42,26.42,0,0,0-4.91-.85,30.77,30.77,0,0,0-7,.27,38.68,38.68,0,0,0-3.86.75,1.54,1.54,0,0,0-.39.23c-2,1.49-1.36,4.76-.66,6.84a24,24,0,0,0,1.28,3c.29.58,1.08.06.79-.52-1-2-3.09-6.31-1-8.35a2.13,2.13,0,0,1,.33-.23l-.08,0a6.53,6.53,0,0,1,1.06-.25c.68-.15,1.35-.27,2-.39a31.45,31.45,0,0,1,6.78-.4,25.62,25.62,0,0,1,7.89,1.7c2.15.82,2.58,4.31,2.64,6.54a.46.46,0,1,0,.92,0Z" transform="translate(-52.79 -102.11)"/><path class="cls-5" d="M541.11,112.9c33.82,0,31.36,28.76,31.36,28.76H509.65S507.19,112.9,541,112.9" transform="translate(-52.79 -102.11)"/><path class="cls-44" d="M543.94,191.14s2.16,3.65,7.25,1.05,16.19-17.84,17-39.15h3.68c-1.69,20.35-8.12,48.57-30.82,47.84-22.71.73-29.13-27.49-30.82-47.84h3.67c.79,21.31,11.89,36.54,17,39.15s7.25-1.05,7.25-1.05" transform="translate(-52.79 -102.11)"/></g><path class="cls-20" d="M540.5,160.41a7.34,7.34,0,0,1-1.89,4.85c-2,2.3-4.31,2.57-3.77,6s4.18,2.95,5.53,2.14,3.64,0,3.64,0,2,.54,1.75-1.82-1.14-3.11-2.43-3-2.15-3.9-2.49-5.87l-.34-2" transform="translate(-52.79 -102.11)"/><path class="cls-44" d="M541,120.29c0,15.09,17.09,16.67,17.09,16.67C569,162,578,156,578,156s-2.75-2.33-4.52-10.17,5.25-34.26-32.46-34.26S510.34,138,508.56,145.79,504,156,504,156s9,6,19.89-19c0,0,17.1-1.58,17.1-16.67" transform="translate(-52.79 -102.11)"/><circle class="cls-45" cx="548.03" cy="146.4" r="21.19"/><path class="cls-21" d="M599,253.13c6.62,4.18,6.64-.12,7.13-1.1s2.88.55,6,2-.47,5.49-.47,5.49c-2.83,2.93-14.18-4.2-14.18-4.2s-10.71-8.05-9-11.74c0,0,2.49-4.79,5-2.4s4.76,4.08,4,4.89S592.7,248.44,599,253.13Z" transform="translate(-52.79 -102.11)"/><path class="cls-21" d="M598.37,240.63l.3,0c.34,0,.69,0,1,0a12,12,0,0,1,3.36.57c3.85,1.22,6.44,4.44,7.81,8.13.17.47.92.27.75-.2-1.44-3.86-4-7.11-8-8.55a11.57,11.57,0,0,0-5.47-.65c-.49.07-.28.81.21.74Z" transform="translate(-52.79 -102.11)"/><path class="cls-21" d="M602.77,237.6c-.17,0,.15,0,.22,0,.26,0,.52,0,.77,0a9.08,9.08,0,0,1,2.53.44,9.52,9.52,0,0,1,5.83,6.09c.18.46.92.26.75-.21a10.5,10.5,0,0,0-6.13-6.54,8.71,8.71,0,0,0-4.17-.49c-.49.07-.28.82.2.74Z" transform="translate(-52.79 -102.11)"/></g></svg>