<?xml version="1.0" standalone="no"?>
<!DOCTYPE svg PUBLIC "-//W3C//DTD SVG 20010904//EN"
 "http://www.w3.org/TR/2001/REC-SVG-20010904/DTD/svg10.dtd">
<svg version="1.0" xmlns="http://www.w3.org/2000/svg"
 width="700.000000pt" height="700.000000pt" viewBox="0 0 700.000000 700.000000"
 preserveAspectRatio="xMidYMid meet">
<metadata>
Created by potrace 1.11, written by Peter Selinger 2001-2013
</metadata>
<g transform="translate(0.000000,700.000000) scale(0.100000,-0.100000)"
fill="#000000" stroke="none">
<path d="M3 5108 c2 -1041 6 -1906 9 -1923 3 -16 9 -59 13 -95 15 -133 27
-207 60 -360 71 -329 254 -782 418 -1038 26 -40 47 -75 47 -78 0 -2 4 -10 10
-17 5 -7 46 -64 91 -126 188 -267 410 -501 679 -716 92 -74 370 -265 386 -265
4 0 15 -6 23 -14 29 -25 304 -161 431 -213 269 -110 577 -194 835 -228 22 -2
56 -7 75 -10 186 -26 698 -27 838 0 16 3 104 15 147 20 322 41 828 219 1152
406 47 27 88 49 90 49 2 0 9 5 16 10 7 6 64 45 127 86 243 161 495 381 672
588 34 39 64 73 68 76 17 13 181 236 245 335 221 340 406 777 481 1140 16 79
54 301 59 350 4 33 9 71 11 85 9 48 11 525 4 605 -17 175 -22 220 -25 225 -2
3 -6 30 -10 60 -9 72 -68 337 -94 420 -11 36 -21 68 -21 72 -2 19 -77 216
-126 333 -281 659 -789 1242 -1406 1612 -125 75 -310 171 -398 208 -36 14 -83
35 -106 45 -110 50 -458 153 -629 186 -22 4 -47 9 -55 10 -8 2 -33 6 -55 9
-22 2 -51 7 -65 10 -13 2 -52 7 -86 11 -33 3 -74 7 -90 9 -16 2 -96 7 -177 10
l-149 6 6 -154 c4 -85 8 -163 10 -174 2 -10 7 -45 10 -78 4 -33 9 -73 11 -90
3 -16 7 -46 9 -65 11 -76 55 -270 100 -440 47 -176 179 -488 294 -695 454
-820 1224 -1425 2137 -1681 55 -15 253 -60 300 -68 173 -29 299 -44 388 -45
46 -1 68 -16 25 -18 -40 -1 -182 -13 -205 -17 -12 -3 -48 -7 -81 -11 -32 -3
-112 -17 -178 -31 -65 -14 -130 -27 -144 -30 -200 -40 -546 -170 -786 -294
-162 -84 -444 -261 -500 -314 -7 -6 -24 -20 -40 -31 -35 -25 -152 -124 -218
-185 -385 -353 -705 -816 -886 -1280 -18 -47 -37 -94 -41 -105 -30 -70 -113
-361 -134 -470 -21 -112 -36 -197 -41 -240 -3 -27 -7 -61 -10 -75 -2 -14 -7
-63 -10 -110 -3 -47 -8 -87 -10 -89 -2 -2 -4 765 -5 1705 0 940 -2 1741 -4
1779 -5 91 -17 214 -30 295 -3 19 -8 52 -11 74 -3 21 -8 48 -10 60 -2 11 -7
36 -10 55 -11 65 -73 306 -102 396 -224 689 -664 1302 -1237 1726 -66 49 -124
92 -130 97 -9 6 -60 39 -185 117 -79 50 -312 166 -425 213 -213 88 -505 177
-678 207 -12 2 -35 7 -52 10 -16 3 -46 7 -65 10 -19 3 -46 7 -60 10 -13 2 -54
7 -90 11 -36 3 -78 8 -95 10 -16 2 -94 6 -173 10 l-143 6 4 -1894z m6847
-1606 c0 -5 -7 -9 -15 -9 -8 0 -12 4 -9 9 3 4 9 8 15 8 5 0 9 -4 9 -8z"/>
</g>
</svg>
